M48
;Layer_Color=9474304
;FILE_FORMAT=4:4
METRIC,LZ
;TYPE=PLATED
T01F00S00C1.0000
T02F00S00C1.0160
T03F00S00C1.0200
%
T01
X0074069Y0040513
X0077569
T02
X0128016Y0055372
Y0057912
Y0060452
Y0062992
X0075819Y0063627
Y0066167
Y0068707
Y0071247
Y0073787
Y0076327
T03
X0097282Y0055753
Y0058293
Y0060833
Y0063373
Y0065913
Y0068453
Y0070993
Y0073533
Y0076073
Y0078613
X0112522
Y0076073
Y0073533
Y0070993
Y0068453
Y0065913
Y0063373
Y0060833
Y0058293
Y0055753
Y0081153
Y0083693
Y0086233
Y0088773
Y0091313
Y0093853
Y0096393
Y0098933
Y0101473
Y0104013
X0097282
Y0101473
Y0098933
Y0096393
Y0093853
Y0091313
Y0088773
Y0086233
Y0083693
Y0081153
X0130302Y0084074
Y0086614
Y0089154
Y0091694
Y0094234
Y0096774
Y0099314
Y0101854
M30
