G04*
G04 #@! TF.GenerationSoftware,Altium Limited,Altium Designer,23.9.2 (47)*
G04*
G04 Layer_Color=65535*
%FSLAX44Y44*%
%MOMM*%
G71*
G04*
G04 #@! TF.SameCoordinates,0D2C48F4-CCEE-4C21-8A82-5B4AAA62CE95*
G04*
G04*
G04 #@! TF.FilePolarity,Positive*
G04*
G01*
G75*
%ADD10C,0.2000*%
%ADD11C,0.2540*%
D10*
X1266190Y537210D02*
X1294130D01*
X1266190D02*
Y646430D01*
X1294130D01*
Y537210D02*
Y646430D01*
X1106170Y1059180D02*
X1144270D01*
Y538480D02*
Y1059180D01*
X1106170Y538480D02*
X1144270D01*
X1106170D02*
Y1059180D01*
X953770Y538480D02*
X991870D01*
X953770D02*
Y1059180D01*
X991870D01*
Y538480D02*
Y1059180D01*
X922020Y532130D02*
X1176020D01*
X1010920Y468630D02*
Y544830D01*
X1036320Y468630D02*
Y544830D01*
X1061720Y468630D02*
Y544830D01*
X1087120Y468630D02*
Y544830D01*
X1010920Y1027430D02*
Y1078230D01*
Y1027430D02*
X1087120D01*
Y1078230D01*
X922020D02*
X1176020D01*
Y532130D02*
Y1078230D01*
X922020Y532130D02*
Y1078230D01*
X1322070Y1043940D02*
X1322070Y815340D01*
X1283970D02*
X1455420D01*
Y1043940D01*
X1283970D02*
X1455420D01*
X1283970Y815340D02*
Y1043940D01*
X775970Y628650D02*
X783590D01*
X775970D02*
Y643890D01*
X783590D01*
X775970Y755650D02*
X783590D01*
X775970D02*
Y770890D01*
X783590D01*
X722630Y788670D02*
X783590D01*
Y610870D02*
Y788670D01*
X722630Y610870D02*
X783590D01*
X722630D02*
Y788670D01*
X717550Y382270D02*
X796290D01*
X717550Y367030D02*
Y448310D01*
Y367030D02*
X796290D01*
Y448310D01*
X717550D02*
X796290D01*
D11*
X1267714Y670301D02*
Y655066D01*
Y662683D01*
X1277871D01*
Y670301D01*
Y655066D01*
X1282949Y667762D02*
X1293106Y657605D01*
X1282949D02*
X1293106Y667762D01*
X1282949Y662683D02*
X1293106D01*
X1288027Y657605D02*
Y667762D01*
X1298184Y655066D02*
X1303262D01*
X1300723D01*
Y670301D01*
X1298184Y667762D01*
X933701Y1099562D02*
X931161Y1102101D01*
X926083D01*
X923544Y1099562D01*
Y1097023D01*
X926083Y1094483D01*
X931161D01*
X933701Y1091944D01*
Y1089405D01*
X931161Y1086866D01*
X926083D01*
X923544Y1089405D01*
X938779Y1102101D02*
X948936D01*
X943857D01*
Y1086866D01*
X954014D02*
Y1102101D01*
X959092Y1097023D01*
X964171Y1102101D01*
Y1086866D01*
X969249Y1099562D02*
X979406Y1089405D01*
X969249D02*
X979406Y1099562D01*
X969249Y1094483D02*
X979406D01*
X974328Y1089405D02*
Y1099562D01*
X984484Y1086866D02*
X989563D01*
X987023D01*
Y1102101D01*
X984484Y1099562D01*
X1285494Y1065272D02*
X1295651Y1055115D01*
X1285494D02*
X1295651Y1065272D01*
X1285494Y1060193D02*
X1295651D01*
X1290572Y1055115D02*
Y1065272D01*
X1300729Y1052576D02*
X1305807D01*
X1303268D01*
Y1067811D01*
X1300729Y1065272D01*
X1393191Y868680D02*
X1377956D01*
X1383034Y873758D01*
X1377956Y878837D01*
X1393191D01*
Y883915D02*
X1377956D01*
Y891533D01*
X1380495Y894072D01*
X1385573D01*
X1388112Y891533D01*
Y883915D01*
X1377956Y899150D02*
X1390652D01*
X1393191Y901689D01*
Y906768D01*
X1390652Y909307D01*
X1377956D01*
X1395730Y914385D02*
Y924542D01*
X1377956Y939777D02*
X1380495Y934699D01*
X1385573Y929620D01*
X1390652D01*
X1393191Y932160D01*
Y937238D01*
X1390652Y939777D01*
X1388112D01*
X1385573Y937238D01*
Y929620D01*
X1380495Y944855D02*
X1377956Y947394D01*
Y952473D01*
X1380495Y955012D01*
X1390652D01*
X1393191Y952473D01*
Y947394D01*
X1390652Y944855D01*
X1380495D01*
X1377956Y970247D02*
Y960090D01*
X1385573D01*
X1383034Y965169D01*
Y967708D01*
X1385573Y970247D01*
X1390652D01*
X1393191Y967708D01*
Y962630D01*
X1390652Y960090D01*
X1380495Y975325D02*
X1377956Y977865D01*
Y982943D01*
X1380495Y985482D01*
X1390652D01*
X1393191Y982943D01*
Y977865D01*
X1390652Y975325D01*
X1380495D01*
X724154Y812541D02*
Y797306D01*
X731771D01*
X734311Y799845D01*
Y810002D01*
X731771Y812541D01*
X724154D01*
X739389Y810002D02*
X749546Y799845D01*
X739389D02*
X749546Y810002D01*
X739389Y804923D02*
X749546D01*
X744467Y799845D02*
Y810002D01*
X754624Y797306D02*
X759703D01*
X757163D01*
Y812541D01*
X754624Y810002D01*
X719074Y472181D02*
X729231D01*
X724152D01*
Y456946D01*
X734309Y469642D02*
X744466Y459485D01*
X734309D02*
X744466Y469642D01*
X734309Y464563D02*
X744466D01*
X739387Y459485D02*
Y469642D01*
X749544Y456946D02*
X754622D01*
X752083D01*
Y472181D01*
X749544Y469642D01*
M02*
